# This file uses meters as units for non-parametric coordinates.

mtllib ENV_tilebase.mtl
g default
v 299.562012 0.420478 0.167194
v 399.562012 0.420478 0.167194
v 299.562012 11.794227 0.167194
v 399.562012 11.794227 0.167194
v 299.562012 11.794227 -99.832809
v 399.562012 11.794227 -99.832809
v 299.562012 0.420478 -99.832809
v 399.562012 0.420478 -99.832809
v 322.031952 10.411390 -28.738300
v 327.070190 10.411390 -29.277922
v 322.436249 10.411390 -24.329765
v 327.380127 10.411390 -24.573769
v 323.739441 35.587074 -26.309280
v 324.769257 35.587074 -26.378895
v 323.781433 35.587074 -25.305389
v 324.801910 35.587074 -25.333759
v 323.441467 15.810805 -24.544495
v 322.990784 15.810805 -27.977747
v 327.328857 15.810805 -28.731571
v 327.586731 15.810805 -24.826813
v 323.949554 19.996670 -24.686497
v 323.564362 19.996670 -27.564137
v 327.254761 19.996670 -28.276894
v 327.447693 19.996670 -24.943306
v 324.362671 25.745899 -25.084915
v 324.107635 25.745899 -27.278652
v 326.816193 25.745899 -27.752827
v 326.944092 25.745899 -25.251476
v 318.892273 10.411390 -45.460251
v 315.939880 10.411390 -49.594158
v 313.197784 10.411390 -44.501389
v 316.416565 10.411390 -41.274666
v 314.872375 33.794640 -43.999428
v 314.672241 33.794640 -44.350121
v 314.199829 33.794640 -43.598190
v 314.509094 33.794640 -43.313095
v 313.541534 15.154354 -43.795692
v 315.543579 15.154354 -48.641258
v 319.007751 15.154354 -45.561520
v 317.634003 15.154354 -41.598694
v 314.323273 22.736065 -43.618916
v 315.936554 22.736065 -46.756264
v 317.846680 22.736065 -44.778625
v 317.141388 22.736065 -42.100021
v 314.832520 28.404688 -43.787083
v 316.046143 28.404688 -46.016891
v 316.729523 28.404688 -44.512505
v 316.032471 28.404688 -42.514740
v 373.818970 11.576203 -80.436676
v 376.876526 11.576203 -83.105171
v 376.109406 11.576203 -77.730103
v 379.240845 11.576203 -80.161293
v 376.055054 25.268644 -79.627449
v 376.698700 25.268644 -80.146202
v 376.543762 25.268644 -78.988121
v 377.200226 25.268644 -79.475525
v 376.670258 14.512814 -78.332764
v 374.797424 14.512814 -80.378159
v 377.297180 14.512814 -82.865540
v 379.260132 14.512814 -80.422218
v 376.938354 16.789402 -78.659317
v 375.363739 16.789402 -80.370300
v 377.457458 16.789402 -82.533211
v 379.115417 16.789402 -80.434784
v 377.026367 19.916269 -79.110489
v 375.851318 19.916269 -80.432571
v 377.410461 19.916269 -81.987915
v 378.643463 19.916269 -80.405617
v 370.104736 11.772176 -83.832115
v 365.969391 11.772176 -85.293777
v 366.552063 11.772176 -80.333900
v 370.426544 11.772176 -79.645775
v 367.985046 31.961388 -80.808182
v 367.669800 31.961388 -80.957100
v 367.708069 31.961388 -80.191322
v 368.067993 31.961388 -80.142853
v 367.144684 15.867275 -80.005020
v 366.160980 15.867275 -84.423553
v 370.136230 15.867275 -83.960922
v 371.127136 15.867275 -80.477852
v 367.785095 22.413363 -80.267120
v 367.372437 22.413363 -83.284988
v 369.702759 22.413363 -82.832222
v 370.530457 22.413363 -80.588470
v 368.062012 27.307678 -80.638260
v 367.816101 27.307678 -82.816330
v 369.044434 27.307678 -82.090759
v 369.540771 27.307678 -80.332611
v 325.757904 10.627954 -19.400711
v 330.410522 10.627954 -20.638222
v 326.835510 10.627954 -15.160038
v 331.510742 10.627954 -16.308582
v 328.028717 43.377285 -18.197878
v 328.999847 43.377285 -18.456181
v 328.253632 43.377285 -17.312742
v 329.229492 43.377285 -17.552467
v 327.431427 17.651688 -14.473513
v 326.536682 17.651688 -17.994524
v 330.399750 17.651688 -19.022030
v 331.313263 17.651688 -15.427147
v 327.787628 23.096790 -14.357574
v 327.034668 23.096790 -17.320675
v 330.285614 23.096790 -18.185368
v 331.054382 23.096790 -15.160107
v 328.118439 30.575573 -14.821823
v 327.560181 30.575573 -17.018639
v 329.970428 30.575573 -17.659714
v 330.540375 30.575573 -15.416809
v 334.837708 10.965162 -37.696358
v 328.386963 10.965162 -36.008099
v 330.200256 10.965162 -28.872265
v 336.648529 10.965162 -30.570215
v 332.645020 35.580276 -33.675568
v 332.222534 35.580276 -33.563599
v 332.392944 35.580276 -32.893059
v 332.815186 35.580276 -33.005936
v 330.506348 15.957994 -30.034527
v 329.000458 15.957994 -35.960678
v 334.323273 15.957994 -37.354012
v 335.827118 15.957994 -31.435902
v 331.160461 23.939121 -31.243740
v 330.145935 23.939121 -35.236198
v 333.665771 23.939121 -36.158081
v 334.678925 23.939121 -32.171036
v 331.828918 29.906376 -32.244015
v 331.285950 29.906376 -34.380718
v 333.075500 29.906376 -34.850151
v 333.617706 29.906376 -32.716351
v 331.199371 10.965162 -37.841988
v 331.289642 15.957994 -37.597816
v 331.646393 23.939121 -36.371552
v 332.041199 29.906376 -34.988262
v 332.399384 35.580276 -33.713364
v 332.618805 35.580276 -32.849800
v 332.740448 29.906376 -32.236481
v 332.952942 23.939121 -31.229809
v 333.229034 15.957994 -29.965742
v 333.534637 10.965162 -28.652012
vt 0.375000 0.000000
vt 0.625000 0.000000
vt 0.375000 0.250000
vt 0.625000 0.250000
vt 0.375000 0.500000
vt 0.625000 0.500000
vt 0.375000 0.750000
vt 0.625000 0.750000
vt 0.375000 1.000000
vt 0.625000 1.000000
vt 0.875000 0.000000
vt 0.875000 0.250000
vt 0.125000 0.000000
vt 0.125000 0.250000
vt 0.393339 0.452738
vt 0.407438 0.452738
vt 0.407438 0.470897
vt 0.393339 0.470897
vt 0.393339 0.452738
vt 0.407438 0.452738
vt 0.407438 0.452738
vt 0.393339 0.452738
vt 0.407438 0.470897
vt 0.407438 0.470897
vt 0.393339 0.470897
vt 0.393339 0.470897
vt 0.407438 0.470897
vt 0.407438 0.452738
vt 0.393339 0.452738
vt 0.393339 0.470897
vt 0.407438 0.470897
vt 0.407438 0.452738
vt 0.393339 0.452738
vt 0.393339 0.470897
vt 0.375000 0.405453
vt 0.393339 0.405453
vt 0.393339 0.438128
vt 0.375000 0.438128
vt 0.375000 0.405453
vt 0.393339 0.405453
vt 0.393339 0.405453
vt 0.375000 0.405453
vt 0.393339 0.438128
vt 0.393339 0.438128
vt 0.375000 0.438128
vt 0.375000 0.438128
vt 0.393339 0.438128
vt 0.393339 0.405453
vt 0.375000 0.405453
vt 0.375000 0.438128
vt 0.393339 0.438128
vt 0.393339 0.405453
vt 0.375000 0.405453
vt 0.375000 0.438128
vt 0.393339 0.452738
vt 0.407438 0.452738
vt 0.407438 0.470897
vt 0.393339 0.470897
vt 0.393339 0.452738
vt 0.407438 0.452738
vt 0.407438 0.452738
vt 0.393339 0.452738
vt 0.407438 0.470897
vt 0.407438 0.470897
vt 0.393339 0.470897
vt 0.393339 0.470897
vt 0.407438 0.470897
vt 0.407438 0.452738
vt 0.393339 0.452738
vt 0.393339 0.470897
vt 0.407438 0.470897
vt 0.407438 0.452738
vt 0.393339 0.452738
vt 0.393339 0.470897
vt 0.375000 0.405453
vt 0.393339 0.405453
vt 0.393339 0.438128
vt 0.375000 0.438128
vt 0.375000 0.405453
vt 0.393339 0.405453
vt 0.393339 0.405453
vt 0.375000 0.405453
vt 0.393339 0.438128
vt 0.393339 0.438128
vt 0.375000 0.438128
vt 0.375000 0.438128
vt 0.393339 0.438128
vt 0.393339 0.405453
vt 0.375000 0.405453
vt 0.375000 0.438128
vt 0.393339 0.438128
vt 0.393339 0.405453
vt 0.375000 0.405453
vt 0.375000 0.438128
vt 0.393339 0.452738
vt 0.407438 0.452738
vt 0.407438 0.470897
vt 0.393339 0.470897
vt 0.393339 0.452738
vt 0.407438 0.452738
vt 0.407438 0.452738
vt 0.393339 0.452738
vt 0.407438 0.470897
vt 0.407438 0.470897
vt 0.393339 0.470897
vt 0.393339 0.470897
vt 0.407438 0.470897
vt 0.407438 0.452738
vt 0.393339 0.452738
vt 0.393339 0.470897
vt 0.407438 0.470897
vt 0.407438 0.452738
vt 0.393339 0.452738
vt 0.393339 0.470897
vt 0.375000 0.405453
vt 0.384600 0.405453
vt 0.384600 0.438128
vt 0.375000 0.438128
vt 0.375000 0.405453
vt 0.384600 0.405453
vt 0.384600 0.405453
vt 0.375000 0.405453
vt 0.393339 0.405453
vt 0.393339 0.438128
vt 0.393339 0.438128
vt 0.393339 0.405453
vt 0.384600 0.438128
vt 0.375000 0.438128
vt 0.375000 0.438128
vt 0.384600 0.438128
vt 0.393339 0.438128
vt 0.393339 0.405453
vt 0.384600 0.405453
vt 0.375000 0.405453
vt 0.375000 0.438128
vt 0.384600 0.438128
vt 0.393339 0.438128
vt 0.393339 0.405453
vt 0.384600 0.405453
vt 0.375000 0.405453
vt 0.375000 0.438128
vt 0.384600 0.438128
vt 0.393339 0.438128
vt 0.393339 0.405453
vn 0.000000 0.000000 1.000000
vn 0.000000 0.000000 1.000000
vn 0.000000 0.000000 1.000000
vn 0.000000 0.000000 1.000000
vn 0.000000 1.000000 0.000000
vn 0.000000 1.000000 0.000000
vn 0.000000 1.000000 0.000000
vn 0.000000 1.000000 0.000000
vn 0.000000 0.000000 -1.000000
vn 0.000000 0.000000 -1.000000
vn 0.000000 0.000000 -1.000000
vn 0.000000 0.000000 -1.000000
vn 0.000000 -1.000000 0.000000
vn 0.000000 -1.000000 0.000000
vn 0.000000 -1.000000 0.000000
vn 0.000000 -1.000000 0.000000
vn 1.000000 0.000000 0.000000
vn 1.000000 0.000000 0.000000
vn 1.000000 0.000000 0.000000
vn 1.000000 0.000000 0.000000
vn -1.000000 0.000000 0.000000
vn -1.000000 0.000000 0.000000
vn -1.000000 0.000000 0.000000
vn -1.000000 0.000000 0.000000
vn 0.000000 1.000000 0.000001
vn 0.000000 1.000000 0.000001
vn 0.000000 1.000000 0.000001
vn 0.000000 1.000000 0.000001
vn -0.135420 0.134073 -0.981675
vn -0.135420 0.134073 -0.981675
vn -0.151022 0.126161 -0.980447
vn -0.152680 0.125317 -0.980298
vn -0.979173 0.172692 0.106758
vn -0.979173 0.172692 0.106758
vn -0.981286 0.153913 0.115706
vn -0.981109 0.155651 0.114881
vn 0.057771 0.036732 0.997654
vn 0.057771 0.036732 0.997654
vn 0.062752 0.033149 0.997479
vn 0.062165 0.033571 0.997501
vn 0.996986 -0.041167 -0.065757
vn 0.996986 -0.041167 -0.065757
vn 0.997789 -0.016113 -0.064479
vn 0.997816 -0.014701 -0.064406
vn -0.986498 0.102757 0.127525
vn -0.986424 0.103360 0.127609
vn -0.180252 0.091781 -0.979329
vn -0.180286 0.091360 -0.979362
vn 0.996772 0.055014 -0.058480
vn 0.996729 0.055912 -0.058358
vn 0.069842 0.044852 0.996549
vn 0.069854 0.044415 0.996568
vn -0.993949 0.015545 0.108738
vn -0.993888 0.016975 0.109082
vn -0.162841 0.085044 -0.982980
vn -0.164682 0.083666 -0.982792
vn 0.988260 0.144449 -0.049772
vn 0.987852 0.147290 -0.049540
vn 0.062407 0.044098 0.997076
vn 0.061694 0.042288 0.997199
vn -0.994393 -0.051486 0.092369
vn -0.994393 -0.051486 0.092369
vn -0.143229 0.099656 -0.984659
vn -0.143229 0.099656 -0.984659
vn 0.976542 0.210742 -0.044209
vn 0.976542 0.210742 -0.044209
vn 0.054025 0.022831 0.998279
vn 0.054025 0.022831 0.998278
vn 0.000000 1.000000 0.000000
vn 0.000000 1.000000 0.000000
vn 0.000000 1.000000 0.000000
vn 0.000000 1.000000 0.000000
vn 0.744694 0.081521 -0.662409
vn 0.744694 0.081521 -0.662409
vn 0.711265 0.121962 -0.692262
vn 0.708662 0.124968 -0.694393
vn -0.900228 0.070146 -0.429731
vn -0.900228 0.070146 -0.429731
vn -0.902624 0.102167 -0.418129
vn -0.902349 0.097647 -0.419799
vn -0.594510 0.065597 0.801408
vn -0.594510 0.065597 0.801408
vn -0.523745 0.043229 0.850778
vn -0.530271 0.045253 0.846620
vn 0.898963 -0.107272 0.424686
vn 0.898963 -0.107272 0.424686
vn 0.933108 0.002086 0.359591
vn 0.932677 0.000285 0.360714
vn -0.897429 0.108088 -0.427712
vn -0.897972 0.109543 -0.426200
vn 0.710192 0.151291 -0.687560
vn 0.712909 0.150498 -0.684917
vn 0.947758 0.126621 0.292784
vn 0.947586 0.128661 0.292451
vn -0.500998 0.023511 0.865129
vn -0.502794 0.023224 0.864094
vn -0.879671 0.019330 -0.475191
vn -0.880482 0.030433 -0.473101
vn 0.818150 0.185094 -0.544400
vn 0.820012 0.190989 -0.539541
vn 0.926331 0.221006 0.305069
vn 0.924563 0.224748 0.307688
vn -0.607190 -0.015340 0.794408
vn -0.616841 -0.022752 0.786759
vn -0.867885 -0.077074 -0.490749
vn -0.867885 -0.077074 -0.490749
vn 0.850125 0.336680 -0.404888
vn 0.850125 0.336680 -0.404888
vn 0.890495 0.288561 0.351783
vn 0.890495 0.288561 0.351783
vn -0.714263 -0.103725 0.692149
vn -0.714263 -0.103725 0.692149
vn 0.000000 1.000000 0.000001
vn 0.000000 1.000000 0.000001
vn 0.000000 1.000000 0.000001
vn 0.000000 1.000000 0.000001
vn -0.667023 0.195397 -0.718958
vn -0.667023 0.195397 -0.718958
vn -0.679185 0.184612 -0.710371
vn -0.681105 0.182884 -0.708978
vn -0.728279 0.249987 0.638056
vn -0.728279 0.249987 0.638056
vn -0.727467 0.223736 0.648640
vn -0.727608 0.227221 0.647269
vn 0.619060 0.054048 0.783481
vn 0.619060 0.054048 0.783481
vn 0.623136 0.048770 0.780592
vn 0.622451 0.049660 0.781082
vn 0.778200 -0.060557 -0.625090
vn 0.778200 -0.060557 -0.625090
vn 0.780181 -0.025185 -0.625046
vn 0.780305 -0.022168 -0.625006
vn -0.730401 0.150726 0.666180
vn -0.730171 0.151970 0.666149
vn -0.705799 0.135342 -0.695364
vn -0.705909 0.134483 -0.695418
vn 0.781593 0.079739 -0.618672
vn 0.781579 0.081648 -0.618440
vn 0.628089 0.065528 0.775378
vn 0.628139 0.064616 0.775414
vn -0.751567 0.024175 0.659214
vn -0.751164 0.027312 0.659550
vn -0.694344 0.124624 -0.708771
vn -0.696536 0.121668 -0.707131
vn 0.772021 0.207361 -0.600821
vn 0.771213 0.213216 -0.599808
vn 0.622537 0.066219 0.779784
vn 0.621863 0.062278 0.780646
vn -0.760414 -0.075699 0.645012
vn -0.760414 -0.075699 0.645012
vn -0.678183 0.145902 -0.720264
vn -0.678183 0.145902 -0.720264
vn 0.755228 0.302597 -0.581434
vn 0.755228 0.302597 -0.581434
vn 0.616651 0.033606 0.786519
vn 0.616651 0.033606 0.786519
vn 0.000000 1.000000 -0.000001
vn 0.000000 1.000000 -0.000001
vn 0.000000 1.000000 -0.000001
vn 0.000000 1.000000 -0.000001
vn 0.230081 0.081517 -0.969752
vn 0.230080 0.081517 -0.969751
vn 0.185573 0.121959 -0.975033
vn 0.182218 0.124965 -0.975285
vn -0.983908 0.070146 0.164332
vn -0.983908 0.070146 0.164332
vn -0.979216 0.102166 0.175209
vn -0.979949 0.097646 0.173684
vn -0.027334 0.065599 0.997472
vn -0.027334 0.065599 0.997472
vn 0.058952 0.043230 0.997324
vn 0.051221 0.045253 0.997662
vn 0.979977 -0.107289 -0.167735
vn 0.979977 -0.107289 -0.167735
vn 0.970611 0.002081 -0.240646
vn 0.970902 0.000280 -0.239478
vn -0.980458 0.108087 0.164378
vn -0.980035 0.109542 0.165929
vn 0.187390 0.151290 -0.970565
vn 0.191132 0.150497 -0.969958
vn 0.944292 0.126627 -0.303774
vn 0.943960 0.128667 -0.303948
vn 0.085818 0.023511 0.996033
vn 0.083753 0.023223 0.996216
vn -0.993143 0.019331 0.115299
vn -0.992609 0.030434 0.117476
vn 0.357940 0.185093 -0.915216
vn 0.362252 0.190989 -0.912303
vn 0.933787 0.221011 -0.281417
vn 0.933841 0.224753 -0.278257
vn -0.041736 -0.015342 0.999011
vn -0.054029 -0.022754 0.998280
vn -0.992412 -0.077073 0.095801
vn -0.992412 -0.077073 0.095801
vn 0.464150 0.336677 -0.819276
vn 0.464150 0.336677 -0.819276
vn 0.931228 0.288561 -0.222590
vn 0.931228 0.288561 -0.222590
vn -0.188103 -0.103728 0.976656
vn -0.188103 -0.103728 0.976656
vn 0.000000 1.000000 -0.000002
vn 0.000000 1.000000 -0.000002
vn 0.000000 1.000000 -0.000002
vn 0.000000 1.000000 -0.000002
vn -0.250937 0.216703 -0.943436
vn -0.250937 0.216703 -0.943436
vn -0.252420 0.188828 -0.949014
vn -0.252416 0.188916 -0.948998
vn -0.967562 0.058057 0.245871
vn -0.967562 0.058057 0.245871
vn -0.967562 0.058059 0.245871
vn -0.967562 0.058058 0.245871
vn 0.237006 -0.114405 0.964749
vn 0.237006 -0.114405 0.964749
vn 0.237704 -0.085209 0.967593
vn 0.237704 -0.085236 0.967591
vn 0.967562 0.058059 -0.245871
vn 0.967562 0.058059 -0.245871
vn 0.967562 0.058060 -0.245872
vn 0.967562 0.058060 -0.245872
vn -0.967562 0.058061 0.245872
vn -0.967562 0.058061 0.245872
vn -0.255775 0.099247 -0.961628
vn -0.255774 0.099305 -0.961623
vn 0.967562 0.058059 -0.245872
vn 0.967562 0.058059 -0.245872
vn 0.238566 0.007042 0.971101
vn 0.238566 0.007046 0.971101
vn -0.967562 0.058061 0.245873
vn -0.967562 0.058061 0.245873
vn -0.257032 -0.009488 -0.966356
vn -0.257032 -0.009502 -0.966356
vn 0.967563 0.058057 -0.245870
vn 0.967563 0.058057 -0.245870
vn 0.236973 0.115517 0.964624
vn 0.236971 0.115598 0.964615
vn -0.967561 0.058063 0.245873
vn -0.967562 0.058063 0.245873
vn -0.256233 -0.079363 -0.963352
vn -0.256233 -0.079363 -0.963352
vn 0.967563 0.058058 -0.245868
vn 0.967563 0.058058 -0.245869
vn 0.234527 0.183282 0.954675
vn 0.234527 0.183282 0.954675
vn 0.000000 1.000000 0.000003
vn 0.000000 1.000000 0.000001
vn 0.000000 1.000000 0.000001
vn 0.000000 1.000000 0.000003
vn 0.058161 0.060998 -0.996442
vn -0.253550 0.065765 -0.965084
vn -0.251347 0.117488 -0.960740
vn 0.074473 0.108375 -0.991317
vn -0.962659 0.115963 0.244622
vn -0.962659 0.115963 0.244622
vn -0.962660 0.115960 0.244621
vn -0.962660 0.115960 0.244621
vn 0.245951 0.249157 0.936712
vn 0.495502 0.238234 0.835298
vn 0.488755 0.193322 0.850732
vn 0.249419 0.201460 0.947209
vn 0.962660 0.115955 -0.244621
vn 0.962660 0.115955 -0.244621
vn 0.962660 0.115957 -0.244621
vn 0.962660 0.115957 -0.244621
vn -0.961587 0.125075 0.244349
vn -0.961613 0.124861 0.244356
vn -0.248850 0.184177 -0.950869
vn 0.095797 0.171663 -0.980487
vn 0.961615 0.124849 -0.244355
vn 0.961585 0.125096 -0.244348
vn 0.478994 0.154494 0.864116
vn 0.251728 0.161212 0.954277
vn -0.959453 0.141440 0.243811
vn -0.959392 0.141882 0.243795
vn -0.246386 0.234996 -0.940250
vn 0.117408 0.217532 -0.968966
vn 0.959391 0.141900 -0.243789
vn 0.959456 0.141433 -0.243806
vn 0.481671 0.149252 0.863549
vn 0.252584 0.154984 0.955082
vn -0.961769 0.123558 0.244405
vn -0.961769 0.123558 0.244405
vn -0.247560 0.228024 -0.941658
vn 0.133124 0.209923 -0.968612
vn 0.961771 0.123565 -0.244393
vn 0.961771 0.123565 -0.244393
vn 0.506616 0.109307 0.855215
vn 0.254961 0.115399 0.960041
vn -0.561384 0.063662 -0.825103
vn -0.573712 0.110521 -0.811566
vn -0.587684 0.173103 -0.790356
vn -0.601817 0.218386 -0.768195
vn -0.616492 0.210224 -0.758778
vn 0.000000 1.000000 0.000000
vn 0.000000 1.000000 0.000000
vn -0.017268 0.152237 0.988193
vn -0.044329 0.112153 0.992702
vn -0.015179 0.157104 0.987465
vn -0.031708 0.195601 0.980171
vn -0.046267 0.240410 0.969568
s off
g TILE_BASE
usemtl initialShadingGroup
f 1/1/1 2/2/2 4/4/3 3/3/4
f 3/3/5 4/4/6 6/6/7 5/5/8
f 5/5/9 6/6/10 8/8/11 7/7/12
f 7/7/13 8/8/14 2/10/15 1/9/16
f 2/2/17 8/11/18 6/12/19 4/4/20
f 7/13/21 1/1/22 3/3/23 5/14/24
f 14/15/25 13/16/26 15/17/27 16/18/28
s 1
f 10/19/29 9/20/30 18/21/31 19/22/32
s 2
f 9/20/33 11/23/34 17/24/35 18/21/36
s 3
f 11/23/37 12/25/38 20/26/39 17/24/40
s 4
f 12/25/41 10/19/42 19/22/43 20/26/44
s 2
f 18/21/36 17/24/35 21/27/45 22/28/46
s 1
f 19/22/32 18/21/31 22/28/47 23/29/48
s 4
f 20/26/44 19/22/43 23/29/49 24/30/50
s 3
f 17/24/40 20/26/39 24/30/51 21/27/52
s 2
f 22/28/46 21/27/45 25/31/53 26/32/54
s 1
f 23/29/48 22/28/47 26/32/55 27/33/56
s 4
f 24/30/50 23/29/49 27/33/57 28/34/58
s 3
f 21/27/52 24/30/51 28/34/59 25/31/60
s 2
f 26/32/54 25/31/53 15/17/61 13/16/62
s 1
f 27/33/56 26/32/55 13/16/63 14/15/64
s 4
f 28/34/58 27/33/57 14/15/65 16/18/66
s 3
f 25/31/60 28/34/59 16/18/67 15/17/68
s off
f 33/35/69 34/36/70 35/37/71 36/38/72
s 5
f 29/39/73 30/40/74 38/41/75 39/42/76
s 6
f 30/40/77 31/43/78 37/44/79 38/41/80
s 7
f 31/43/81 32/45/82 40/46/83 37/44/84
s 8
f 32/45/85 29/39/86 39/42/87 40/46/88
s 6
f 38/41/80 37/44/79 41/47/89 42/48/90
s 5
f 39/42/76 38/41/75 42/48/91 43/49/92
s 8
f 40/46/88 39/42/87 43/49/93 44/50/94
s 7
f 37/44/84 40/46/83 44/50/95 41/47/96
s 6
f 42/48/90 41/47/89 45/51/97 46/52/98
s 5
f 43/49/92 42/48/91 46/52/99 47/53/100
s 8
f 44/50/94 43/49/93 47/53/101 48/54/102
s 7
f 41/47/96 44/50/95 48/54/103 45/51/104
s 6
f 46/52/98 45/51/97 35/37/105 34/36/106
s 5
f 47/53/100 46/52/99 34/36/107 33/35/108
s 8
f 48/54/102 47/53/101 33/35/109 36/38/110
s 7
f 45/51/104 48/54/103 36/38/111 35/37/112
s off
f 54/55/113 53/56/114 55/57/115 56/58/116
s 9
f 50/59/117 49/60/118 58/61/119 59/62/120
s 10
f 49/60/121 51/63/122 57/64/123 58/61/124
s 11
f 51/63/125 52/65/126 60/66/127 57/64/128
s 12
f 52/65/129 50/59/130 59/62/131 60/66/132
s 10
f 58/61/124 57/64/123 61/67/133 62/68/134
s 9
f 59/62/120 58/61/119 62/68/135 63/69/136
s 12
f 60/66/132 59/62/131 63/69/137 64/70/138
s 11
f 57/64/128 60/66/127 64/70/139 61/67/140
s 10
f 62/68/134 61/67/133 65/71/141 66/72/142
s 9
f 63/69/136 62/68/135 66/72/143 67/73/144
s 12
f 64/70/138 63/69/137 67/73/145 68/74/146
s 11
f 61/67/140 64/70/139 68/74/147 65/71/148
s 10
f 66/72/142 65/71/141 55/57/149 53/56/150
s 9
f 67/73/144 66/72/143 53/56/151 54/55/152
s 12
f 68/74/146 67/73/145 54/55/153 56/58/154
s 11
f 65/71/148 68/74/147 56/58/155 55/57/156
s off
f 73/75/157 74/76/158 75/77/159 76/78/160
s 13
f 69/79/161 70/80/162 78/81/163 79/82/164
s 14
f 70/80/165 71/83/166 77/84/167 78/81/168
s 15
f 71/83/169 72/85/170 80/86/171 77/84/172
s 16
f 72/85/173 69/79/174 79/82/175 80/86/176
s 14
f 78/81/168 77/84/167 81/87/177 82/88/178
s 13
f 79/82/164 78/81/163 82/88/179 83/89/180
s 16
f 80/86/176 79/82/175 83/89/181 84/90/182
s 15
f 77/84/172 80/86/171 84/90/183 81/87/184
s 14
f 82/88/178 81/87/177 85/91/185 86/92/186
s 13
f 83/89/180 82/88/179 86/92/187 87/93/188
s 16
f 84/90/182 83/89/181 87/93/189 88/94/190
s 15
f 81/87/184 84/90/183 88/94/191 85/91/192
s 14
f 86/92/186 85/91/185 75/77/193 74/76/194
s 13
f 87/93/188 86/92/187 74/76/195 73/75/196
s 16
f 88/94/190 87/93/189 73/75/197 76/78/198
s 15
f 85/91/192 88/94/191 76/78/199 75/77/200
s off
f 94/95/201 93/96/202 95/97/203 96/98/204
s 17
f 90/99/205 89/100/206 98/101/207 99/102/208
s 18
f 89/100/209 91/103/210 97/104/211 98/101/212
s 19
f 91/103/213 92/105/214 100/106/215 97/104/216
s 20
f 92/105/217 90/99/218 99/102/219 100/106/220
s 18
f 98/101/212 97/104/211 101/107/221 102/108/222
s 17
f 99/102/208 98/101/207 102/108/223 103/109/224
s 20
f 100/106/220 99/102/219 103/109/225 104/110/226
s 19
f 97/104/216 100/106/215 104/110/227 101/107/228
s 18
f 102/108/222 101/107/221 105/111/229 106/112/230
s 17
f 103/109/224 102/108/223 106/112/231 107/113/232
s 20
f 104/110/226 103/109/225 107/113/233 108/114/234
s 19
f 101/107/228 104/110/227 108/114/235 105/111/236
s 18
f 106/112/230 105/111/229 95/97/237 93/96/238
s 17
f 107/113/232 106/112/231 93/96/239 94/95/240
s 20
f 108/114/234 107/113/233 94/95/241 96/98/242
s 19
f 105/111/236 108/114/235 96/98/243 95/97/244
s 21
f 113/115/245 133/116/246 134/117/247 116/118/248
s 22
f 109/119/249 129/120/250 130/121/251 119/122/252
s 23
f 110/123/253 111/124/254 117/125/255 118/126/256
s 24
f 138/127/257 112/128/258 120/129/259 137/130/260
s 25
f 112/128/261 109/119/262 119/122/263 120/129/264
s 23
f 118/126/256 117/125/255 121/131/265 122/132/266
s 22
f 119/122/252 130/121/251 131/133/267 123/134/268
s 25
f 120/129/264 119/122/263 123/134/269 124/135/270
s 24
f 137/130/260 120/129/259 124/135/271 136/136/272
s 23
f 122/132/266 121/131/265 125/137/273 126/138/274
s 22
f 123/134/268 131/133/267 132/139/275 127/140/276
s 25
f 124/135/270 123/134/269 127/140/277 128/141/278
s 24
f 136/136/272 124/135/271 128/141/279 135/142/280
s 23
f 126/138/274 125/137/273 115/143/281 114/144/282
s 22
f 127/140/276 132/139/275 133/116/283 113/115/284
s 25
f 128/141/278 127/140/277 113/115/285 116/118/286
s 24
f 135/142/280 128/141/279 116/118/287 134/117/288
s 22
f 129/120/250 110/123/289 118/126/290 130/121/251
f 131/133/267 130/121/251 118/126/290 122/132/291
f 132/139/275 131/133/267 122/132/291 126/138/292
f 133/116/283 132/139/275 126/138/292 114/144/293
s 21
f 134/117/247 133/116/246 114/144/294 115/143/295
s 24
f 125/137/296 135/142/280 134/117/288 115/143/297
f 121/131/298 136/136/272 135/142/280 125/137/296
f 117/125/299 137/130/260 136/136/272 121/131/298
f 111/124/300 138/127/257 137/130/260 117/125/299
